<svg width="24" height="24" viewBox="0 0 24 24" fill="none" xmlns="http://www.w3.org/2000/svg">
<path d="M7.11 11.52L6.4 16.46C6.326 17.05 6.69 17.6 7.54 17.6L12.48 16.89C12.6955 16.8614 12.8956 16.763 13.05 16.61C13.129 16.531 20.88 8.78701 20.95 8.70001C24.392 4.89801 18.975 -0.288987 15.3 3.05001C15.213 3.12001 7.468 10.872 7.39 10.95C7.23697 11.1044 7.13864 11.3046 7.11 11.52ZM18 4.02001C18.2619 4.01656 18.5219 4.06527 18.7648 4.1633C19.0077 4.26134 19.2287 4.40673 19.4148 4.59102C19.601 4.7753 19.7486 4.99479 19.849 5.23669C19.9495 5.4786 20.0008 5.73808 20 6.00001C20.0006 6.42673 19.86 6.84165 19.6 7.18001L16.82 4.40001C17.161 4.14737 17.5756 4.01385 18 4.02001ZM9.04 12.13L15.38 5.80001L18.2 8.62001L11.87 14.96L8.57 15.43L9.04 12.13Z" fill="#B176B4"/>
<path d="M19 13.125V17C18.9992 17.7954 18.6829 18.558 18.1204 19.1204C17.558 19.6829 16.7954 19.9992 16 20H7C6.20459 19.9992 5.44199 19.6829 4.87956 19.1204C4.31712 18.558 4.00079 17.7954 4 17V8C4.00079 7.20459 4.31712 6.44199 4.87956 5.87956C5.44199 5.31712 6.20459 5.00079 7 5H10.969C11.2342 5 11.4886 4.89464 11.6761 4.70711C11.8636 4.51957 11.969 4.26522 11.969 4C11.969 3.73478 11.8636 3.48043 11.6761 3.29289C11.4886 3.10536 11.2342 3 10.969 3H7C5.67441 3.00159 4.40356 3.52888 3.46622 4.46622C2.52888 5.40356 2.00159 6.67441 2 8V17C2.00159 18.3256 2.52888 19.5964 3.46622 20.5338C4.40356 21.4711 5.67441 21.9984 7 22H16C17.3256 21.9984 18.5964 21.4711 19.5338 20.5338C20.4711 19.5964 20.9984 18.3256 21 17V13.125C21 12.8598 20.8946 12.6054 20.7071 12.4179C20.5196 12.2304 20.2652 12.125 20 12.125C19.7348 12.125 19.4804 12.2304 19.2929 12.4179C19.1054 12.6054 19 12.8598 19 13.125Z" fill="#B176B4"/>
</svg>
